<svg width="24" height="24" viewBox="0 0 24 24" fill="none" xmlns="http://www.w3.org/2000/svg">
<g id="vuesax/outline/maximize-4">
<g id="maximize-4">
<path id="Vector" d="M13.5024 3.75C13.9124 3.75 14.2524 4.09 14.2524 4.5L14.2524 9.75L19.5024 9.75C19.9124 9.75 20.2524 10.09 20.2524 10.5C20.2524 10.91 19.9124 11.25 19.5024 11.25L13.5024 11.25C13.0924 11.25 12.7524 10.91 12.7524 10.5L12.7524 4.5C12.7524 4.09 13.0924 3.75 13.5024 3.75Z" fill="#292D32"/>
<path id="Vector_2" d="M4.49744 12.7525L10.4974 12.7525C10.9074 12.7525 11.2474 13.0925 11.2474 13.5025L11.2474 19.5025C11.2474 19.9125 10.9074 20.2525 10.4974 20.2525C10.0874 20.2525 9.74744 19.9125 9.74744 19.5025L9.74744 14.2525L4.49744 14.2525C4.08744 14.2525 3.74744 13.9125 3.74744 13.5025C3.74744 13.0925 4.08744 12.7525 4.49744 12.7525Z" fill="#292D32"/>
<path id="Vector_3" d="M21.0025 2.25C21.1925 2.25 21.3825 2.32 21.5325 2.47C21.8225 2.76 21.8225 3.24 21.5325 3.53L14.0325 11.03C13.7425 11.32 13.2625 11.32 12.9725 11.03C12.6825 10.74 12.6825 10.26 12.9725 9.97L20.4725 2.47C20.6225 2.32 20.8125 2.25 21.0025 2.25Z" fill="#292D32"/>
<path id="Vector_4" d="M10.4975 12.7525C10.6875 12.7525 10.8775 12.8225 11.0275 12.9725C11.3175 13.2625 11.3175 13.7425 11.0275 14.0325L3.52749 21.5325C3.23749 21.8225 2.75749 21.8225 2.46749 21.5325C2.17749 21.2425 2.17749 20.7625 2.46749 20.4725L9.96749 12.9725C10.1175 12.8225 10.3075 12.7525 10.4975 12.7525Z" fill="#292D32"/>
</g>
</g>
</svg>
