<svg width="25" height="24" viewBox="0 0 25 24" fill="none" xmlns="http://www.w3.org/2000/svg">
<g id="21-san" clip-path="url(#clip0_18_739)">
<path id="Vector" d="M2.82843 9V6.5C2.82843 4.01 4.83843 2 7.32843 2H9.82843" stroke="#BCBCBC" stroke-width="1.5" stroke-linecap="round" stroke-linejoin="round"/>
<path id="Vector_2" d="M15.8284 2H18.3284C20.8184 2 22.8284 4.01 22.8284 6.5V9" stroke="#BCBCBC" stroke-width="1.5" stroke-linecap="round" stroke-linejoin="round"/>
<path id="Vector_3" d="M22.8284 16V17.5C22.8284 19.99 20.8184 22 18.3284 22H16.8284" stroke="#BCBCBC" stroke-width="1.5" stroke-linecap="round" stroke-linejoin="round"/>
<path id="Vector_4" d="M9.82843 22H7.32843C4.83843 22 2.82843 19.99 2.82843 17.5V15" stroke="#BCBCBC" stroke-width="1.5" stroke-linecap="round" stroke-linejoin="round"/>
<path id="Vector_5" d="M11.3284 7V9C11.3284 10 10.8284 10.5 9.82843 10.5H7.82843C6.82843 10.5 6.32843 10 6.32843 9V7C6.32843 6 6.82843 5.5 7.82843 5.5H9.82843C10.8284 5.5 11.3284 6 11.3284 7Z" stroke="#BCBCBC" stroke-width="1.5" stroke-linecap="round" stroke-linejoin="round"/>
<path id="Vector_6" d="M19.3284 7V9C19.3284 10 18.8284 10.5 17.8284 10.5H15.8284C14.8284 10.5 14.3284 10 14.3284 9V7C14.3284 6 14.8284 5.5 15.8284 5.5H17.8284C18.8284 5.5 19.3284 6 19.3284 7Z" stroke="#BCBCBC" stroke-width="1.5" stroke-linecap="round" stroke-linejoin="round"/>
<path id="Vector_7" d="M11.3284 15V17C11.3284 18 10.8284 18.5 9.82843 18.5H7.82843C6.82843 18.5 6.32843 18 6.32843 17V15C6.32843 14 6.82843 13.5 7.82843 13.5H9.82843C10.8284 13.5 11.3284 14 11.3284 15Z" stroke="#BCBCBC" stroke-width="1.5" stroke-linecap="round" stroke-linejoin="round"/>
<path id="Vector_8" d="M19.3284 15V17C19.3284 18 18.8284 18.5 17.8284 18.5H15.8284C14.8284 18.5 14.3284 18 14.3284 17V15C14.3284 14 14.8284 13.5 15.8284 13.5H17.8284C18.8284 13.5 19.3284 14 19.3284 15Z" stroke="#BCBCBC" stroke-width="1.5" stroke-linecap="round" stroke-linejoin="round"/>
</g>
<defs>
<clipPath id="clip0_18_739">
<rect width="24" height="24" fill="white" transform="translate(0.82843)"/>
</clipPath>
</defs>
</svg>
